<svg width="132" height="41" viewBox="0 0 132 41" fill="none" xmlns="http://www.w3.org/2000/svg">
<mask id="mask0_602_1464" style="mask-type:luminance" maskUnits="userSpaceOnUse" x="0" y="0" width="132" height="41">
<path d="M0 40.0907H131.297V1.43051e-06H0V40.0907Z" fill="white"/>
</mask>
<g mask="url(#mask0_602_1464)">
<mask id="mask1_602_1464" style="mask-type:luminance" maskUnits="userSpaceOnUse" x="0" y="0" width="132" height="41">
<path d="M0 0.000102997H131.297V40.0908H0V0.000102997Z" fill="white"/>
</mask>
<g mask="url(#mask1_602_1464)">
<mask id="mask2_602_1464" style="mask-type:luminance" maskUnits="userSpaceOnUse" x="0" y="0" width="132" height="41">
<path d="M0 0.000102997H131.297V40.0908H0V0.000102997Z" fill="white"/>
</mask>
<g mask="url(#mask2_602_1464)">
<path d="M39.5562 10.0228C35.3466 10.0228 32.0191 10.985 29.7072 12.5752C26.9944 14.4595 25.5779 17.2258 25.5779 20.4865C25.5779 24.255 27.3419 27.2618 30.6961 29.0792C32.9412 30.282 35.9213 30.9501 39.5562 30.9501C48.8973 30.9501 53.5478 26.6604 53.5478 20.4865C53.5478 14.3125 48.8572 10.0228 39.5562 10.0228ZM45.4896 23.8541C44.1666 24.99 42.0952 25.4844 39.5562 25.4844C37.0037 25.4844 34.8656 24.8831 33.5426 23.7205C32.567 22.8251 31.9256 21.6892 31.9256 20.4865C31.9256 19.1368 32.5938 17.9741 33.6227 17.1189C34.9457 15.983 37.0171 15.4885 39.5562 15.4885C42.1086 15.4885 44.2468 16.0899 45.5698 17.2659C46.5587 18.1479 47.2001 19.2838 47.2001 20.4865C47.2001 21.8362 46.5186 23.0122 45.5029 23.8541H45.4896Z" fill="#101010"/>
<path d="M62.2074 10.4505H55.8597V30.4558H62.2074V10.4505Z" fill="#101010"/>
<path d="M92.2353 10.0228C83.1481 10.0228 78.257 14.4194 78.257 20.4865C78.257 26.5535 83.2149 30.9635 92.2754 30.9635C100.561 30.9635 105.011 28.1171 106.053 23.6135H98.6899C98.4226 24.0679 97.9015 24.4688 97.2333 24.7495C96.0038 25.2439 94.3067 25.5245 92.2086 25.5245C88.4668 25.5245 85.6471 24.255 85.0457 22.0901H106.16C106.227 21.5823 106.227 21.021 106.227 20.4865C106.227 14.4595 101.536 10.0228 92.2353 10.0228ZM85.2194 18.4018C85.8609 16.905 88.106 15.4217 92.2353 15.4217C96.378 15.4217 98.3157 16.8382 99.1309 18.4018H85.2194Z" fill="#101010"/>
<path d="M122.17 10.4505H106.882V15.9964H115.822V30.4558H122.17V15.9964H131.137V10.4505H122.17Z" fill="#101010"/>
<path d="M15.4483 10.4505H0V30.4558H6.34769V25.979H15.3948C21.2481 25.979 24.3885 22.6247 24.3885 18.2148C24.3885 13.7914 21.3149 10.4505 15.4483 10.4505ZM14.7801 20.54H6.34769V15.9964H14.7801C16.7846 15.9964 17.7468 16.9987 17.7468 18.2682C17.7468 19.5244 16.7178 20.5267 14.7801 20.5267V20.54Z" fill="#101010"/>
<path d="M73.5932 24.1482C71.6287 22.4109 70.0518 20.7538 70.0518 19.7382C70.0518 18.629 71.8693 17.0521 73.7001 15.6623C73.9807 15.4485 74.2613 15.2347 74.542 15.0209C75.8115 14.0453 77.8428 12.4417 80.4086 10.4505H71.014C70.6532 10.7178 70.5463 10.798 70.4394 10.8782C67.4593 13.15 63.7977 15.7158 63.7977 20.0189C63.7977 23.921 66.8045 26.3665 69.9716 29.1863C70.5195 29.6807 71.0942 30.1885 71.5218 30.5226H80.9164L75.4774 25.8454C74.8092 25.244 74.1945 24.6827 73.5798 24.1482H73.5932Z" fill="#101010"/>
</g>
</g>
</g>
</svg>
