<svg width="341" height="125" viewBox="0 0 341 125" fill="none" xmlns="http://www.w3.org/2000/svg">
<mask id="mask0_602_1494" style="mask-type:luminance" maskUnits="userSpaceOnUse" x="0" y="0" width="341" height="125">
<path d="M0 124.794H340.771V3.8147e-06H0V124.794Z" fill="white"/>
</mask>
<g mask="url(#mask0_602_1494)">
<mask id="mask1_602_1494" style="mask-type:luminance" maskUnits="userSpaceOnUse" x="0" y="0" width="341" height="125">
<path d="M0 7.62939e-05H340.771V124.794H0V7.62939e-05Z" fill="white"/>
</mask>
<g mask="url(#mask1_602_1494)">
<mask id="mask2_602_1494" style="mask-type:luminance" maskUnits="userSpaceOnUse" x="0" y="0" width="341" height="125">
<path d="M0 7.62939e-05H340.771V124.794H0V7.62939e-05Z" fill="white"/>
</mask>
<g mask="url(#mask2_602_1494)">
<path d="M5.01133 1.04012H335.759C337.978 1.04012 339.768 2.89815 339.768 5.1999V119.594C339.768 121.896 337.978 123.754 335.759 123.754H5.01133C2.79298 123.754 1.00226 121.896 1.00226 119.594V5.1999C1.00226 2.89815 2.79298 1.04012 5.01133 1.04012Z" stroke="black" stroke-opacity="0.3" stroke-width="2.04187" stroke-miterlimit="10" stroke-dasharray="5.1 5.1"/>
<path d="M270.011 87.619V82.3638H265.333V87.619H262.086V74.7514H265.333V79.6877H270.011V74.7514H273.245V87.619H270.011ZM256.246 83.9584C255.885 84.8042 255.003 85.2895 253.721 85.2895C252.037 85.2895 250.968 84.097 250.914 82.1835V82.0171H259.347V80.9633C259.347 76.9006 257.222 74.4741 253.587 74.4741C249.952 74.4741 247.694 77.0531 247.694 81.2545C247.694 85.442 249.885 87.9102 253.64 87.9102C256.647 87.9102 258.772 86.371 259.253 83.9584H256.246ZM253.6 77.067C255.124 77.067 256.113 78.1347 256.179 79.8402H250.941C251.034 78.1763 252.104 77.067 253.6 77.067ZM234.851 90.9468V87.619H243.217V90.9468H246.17V84.9567H244.339V74.7514H234.597L234.196 81.1991C234.103 82.9462 233.742 84.416 232.847 84.9567H231.898V90.9468H234.851ZM241.092 84.9567H236.214V84.7349C236.709 83.9306 236.989 82.752 237.083 81.4486L237.364 77.4136H241.092V84.9567ZM227.421 83.9584C227.087 84.8042 226.205 85.2895 224.922 85.2895C223.238 85.2895 222.169 84.097 222.116 82.1835V82.0171H230.548V80.9633C230.548 76.9006 228.41 74.4741 224.788 74.4741C221.18 74.4741 218.895 77.0531 218.895 81.2545C218.895 85.442 221.087 87.9102 224.842 87.9102C227.849 87.9102 229.973 86.371 230.455 83.9584H227.421ZM224.802 77.067C226.312 77.067 227.287 78.1347 227.354 79.8402H222.142C222.236 78.1763 223.305 77.067 224.802 77.067ZM209.273 82.1697H211.412C212.801 82.1697 213.51 82.7382 213.51 83.7642C213.51 84.7903 212.855 85.3727 211.599 85.3727H209.273V82.1697ZM209.273 76.9838H211.358C212.534 76.9838 213.095 77.58 213.095 78.5091C213.095 79.4242 212.467 80.0343 211.171 80.0343H209.273V76.9838ZM212.32 87.619C215.113 87.619 216.824 86.1353 216.824 83.9722C216.824 82.3638 215.715 81.1574 214.071 81.0049V80.7969C215.367 80.5751 216.276 79.4103 216.276 78.0099C216.276 76.027 214.779 74.7514 212.227 74.7514H206.079V87.619H212.32ZM197.313 85.1231C195.589 85.1231 194.614 83.6949 194.614 81.1852C194.614 78.6616 195.589 77.2473 197.313 77.2473C199.037 77.2473 200.026 78.7032 200.026 81.1852C200.026 83.6533 199.05 85.1231 197.313 85.1231ZM197.313 87.9102C201.095 87.9102 203.353 85.3866 203.353 81.1852C203.353 76.9699 201.055 74.4741 197.313 74.4741C193.558 74.4741 191.286 77.0254 191.286 81.1852C191.286 85.345 193.544 87.9102 197.313 87.9102ZM183.041 84.9845C181.33 84.9845 180.248 83.5563 180.248 81.1991C180.248 78.8418 181.33 77.3859 183.054 77.3859C184.778 77.3859 185.82 78.828 185.82 81.1852C185.82 83.5285 184.791 84.9845 183.041 84.9845ZM184.136 74.5434C182.439 74.5434 181.063 75.4031 180.381 76.859H180.181V74.7514H177.04V91.8897H180.288V85.6639H180.488C181.09 87.0227 182.439 87.8131 184.203 87.8131C187.277 87.8131 189.148 85.345 189.148 81.1852C189.148 77.0254 187.237 74.5434 184.136 74.5434ZM170.492 87.619H173.726V74.7514H162.661V87.619H165.909V77.4275H170.492V87.619ZM139.796 87.619L143.137 82.2251H143.832V87.619H146.986V82.2251H147.707L151.035 87.619H154.79L150.3 80.6167L154.536 74.7514H150.941L147.667 79.8125H146.986V74.7514H143.832V79.8125H143.177L139.903 74.7514H136.282L140.545 80.6444L136.041 87.619H139.796ZM132.126 83.9584C131.791 84.8042 130.896 85.2895 129.627 85.2895C127.916 85.2895 126.86 84.097 126.82 82.1835V82.0171H135.253V80.9633C135.253 76.9006 133.114 74.4741 129.493 74.4741C125.885 74.4741 123.586 77.0531 123.586 81.2545C123.586 85.442 125.791 87.9102 129.533 87.9102C132.54 87.9102 134.665 86.371 135.146 83.9584H132.126ZM129.493 77.067C131.016 77.067 131.992 78.1347 132.059 79.8402H126.82C126.94 78.1763 127.996 77.067 129.493 77.067ZM122.143 74.7514H111.559V77.4275H115.234V87.619H118.481V77.4275H122.143V74.7514ZM102.351 87.8131C103.942 87.8131 105.278 87.1337 105.92 85.9412H106.12V87.619H109.247V78.8418C109.247 76.0825 107.416 74.4741 104.156 74.4741C101.082 74.4741 98.9839 75.9577 98.7834 78.3427H101.777C102.031 77.5662 102.806 77.1641 103.982 77.1641C105.318 77.1641 106.053 77.7603 106.053 78.8418V79.8818L103.073 80.0759C100.04 80.2562 98.3291 81.6289 98.3291 83.9445C98.3291 86.2601 99.9861 87.8131 102.351 87.8131ZM103.421 85.2756C102.298 85.2756 101.51 84.6794 101.51 83.7227C101.51 82.7798 102.178 82.2806 103.568 82.1697L106.053 82.0171V82.9462C106.053 84.2634 104.917 85.2756 103.421 85.2756ZM88.9211 81.7814L89.2151 77.4275H92.4224V87.619H95.6564V74.7514H86.4221L86.0613 81.1991L86.0346 81.7121C85.8876 83.4869 85.4867 84.721 84.4176 84.721C84.0969 84.721 83.8563 84.6655 83.7227 84.6378V87.619C83.8831 87.6744 84.2439 87.7854 84.7517 87.7854C87.6649 87.7854 88.6806 85.4143 88.9211 81.7814ZM81.3173 87.619V70.7857H67.5261V87.619H70.8937V73.8224H77.963V87.619H81.3173Z" fill="black" fill-opacity="0.3"/>
<path d="M228.677 49.2798H228.263V53.1068H226.993V44.7179H228.263V48.226H228.677L231.791 44.7179H233.328L229.746 48.6836L233.475 53.1068H231.831L228.677 49.2798ZM223.265 53.1068H224.548V44.7179H223.265V48.1844H219.269V44.7179H217.986V53.1068H219.269V49.3214H223.265V53.1068ZM211.799 53.2455C212.855 53.2455 213.737 52.774 214.258 51.8727H214.378V53.1068H215.594V47.3663C215.594 45.6192 214.499 44.5792 212.547 44.5792C210.85 44.5792 209.581 45.4666 209.407 46.8116H210.69C210.877 46.1461 211.545 45.7578 212.507 45.7578C213.697 45.7578 214.311 46.3263 214.311 47.3663V48.1289L212.013 48.2814C210.142 48.4062 209.086 49.2521 209.086 50.7496C209.086 52.261 210.236 53.2455 211.799 53.2455ZM212.026 52.0807C211.104 52.0807 210.409 51.5815 210.409 50.7357C210.409 49.8899 210.944 49.4462 212.16 49.3491L214.311 49.2105V49.9731C214.311 51.1794 213.349 52.0807 212.026 52.0807ZM201.135 46.4373C201.389 44.3574 201.99 43.1788 204.142 43.0956L204.957 43.0401C206.52 42.9708 206.975 42.5409 206.975 42.5409V41.3485L206.814 41.4317C206.507 41.5287 205.812 41.7506 204.89 41.7922L204.088 41.8338C200.894 41.9863 200.052 44.3296 200.052 48.1844C200.052 51.637 201.402 53.2455 203.781 53.2455C206.173 53.2455 207.496 51.637 207.496 49.0025C207.496 46.3679 206.079 44.8981 203.968 44.8981C202.618 44.8981 201.736 45.5499 201.269 46.4373H201.135ZM203.781 52.0391C202.244 52.0391 201.375 50.9298 201.375 49.0025C201.375 47.0751 202.244 46.1045 203.781 46.1045C205.318 46.1045 206.186 47.1444 206.186 49.0025C206.186 50.8605 205.304 52.0391 203.781 52.0391ZM190.377 53.1068V47.1444H190.511L193.05 52.8711H194.039L196.578 47.1444H196.712V53.1068H197.995V44.7179H196.511L193.638 51.2349H193.518L190.645 44.7179H189.108V53.1068H190.377ZM183.361 52.0391C181.851 52.0391 180.983 50.9021 180.983 48.9193C180.983 46.9364 181.851 45.7856 183.361 45.7856C184.885 45.7856 185.727 46.9364 185.727 48.9193C185.727 50.9021 184.871 52.0391 183.361 52.0391ZM183.361 53.2455C185.647 53.2455 187.05 51.6093 187.05 48.9193C187.05 46.2154 185.647 44.5792 183.361 44.5792C181.09 44.5792 179.673 46.2154 179.673 48.9193C179.673 51.6093 181.09 53.2455 183.361 53.2455ZM173.98 49.2798L177.094 53.1068H178.751L175.023 48.6836L178.617 44.7179H177.067L173.98 48.226H173.553V44.7179H172.27V53.1068H173.553V49.2798H173.98ZM165.307 49.3907H167.165C168.314 49.3907 168.902 49.779 168.902 50.6664C168.902 51.5538 168.381 51.9975 167.405 51.9975H165.307V49.3907ZM165.307 45.8549H167.272C168.167 45.8549 168.555 46.3263 168.555 47.0474C168.555 47.8516 168.1 48.2814 167.044 48.2814H165.307V45.8549ZM167.432 53.1068C169.156 53.1068 170.172 52.15 170.172 50.6941C170.172 49.7096 169.53 48.9609 168.514 48.8222V48.6974C169.263 48.5449 169.824 47.7407 169.824 46.9087C169.824 45.5914 168.942 44.7179 167.419 44.7179H164.024V53.1068H167.432ZM158.305 52.0391C156.781 52.0391 155.913 50.9021 155.913 48.9193C155.913 46.9364 156.781 45.7856 158.305 45.7856C159.815 45.7856 160.67 46.9364 160.67 48.9193C160.67 50.9021 159.801 52.0391 158.305 52.0391ZM158.305 53.2455C160.563 53.2455 161.98 51.6093 161.98 48.9193C161.98 46.2154 160.563 44.5792 158.305 44.5792C156.033 44.5792 154.603 46.2154 154.603 48.9193C154.603 51.6093 156.02 53.2455 158.305 53.2455ZM148.536 53.3702C150.821 53.3702 152.505 52.0391 152.879 49.9731H151.516C151.169 51.2904 150.046 52.0807 148.536 52.0807C146.478 52.0807 145.195 50.3059 145.195 47.4911C145.195 44.6763 146.478 42.9153 148.536 42.9153C150.006 42.9153 151.155 43.8166 151.516 45.2725H152.879C152.558 43.1094 150.794 41.6258 148.536 41.6258C145.636 41.6258 143.805 43.8721 143.805 47.4911C143.805 51.124 145.636 53.3702 148.536 53.3702ZM132.74 42.9153C134.945 42.9153 136.295 44.6763 136.295 47.4911C136.295 50.3059 134.945 52.0807 132.74 52.0807C130.549 52.0807 129.212 50.2781 129.212 47.4911C129.212 44.7179 130.562 42.9153 132.74 42.9153ZM132.74 41.6258C129.72 41.6258 127.822 43.8859 127.822 47.4911C127.822 51.1101 129.667 53.3702 132.74 53.3702C135.814 53.3702 137.658 51.0685 137.658 47.4911C137.658 43.9275 135.787 41.6258 132.74 41.6258ZM122.17 43.6918H122.29L123.96 48.6974H120.499L122.17 43.6918ZM125.43 53.1068H126.834L122.891 41.8892H121.568L117.626 53.1068H119.029L120.098 49.9038H124.361L125.43 53.1068ZM115.688 53.1068V41.8892H107.296V53.1068H108.646V43.1649H114.365V53.1068H115.688Z" fill="black" fill-opacity="0.3"/>
</g>
</g>
</g>
</svg>
